<?xml version="1.0" standalone="no"?>
<!DOCTYPE svg PUBLIC "-//W3C//DTD SVG 20010904//EN"
 "http://www.w3.org/TR/2001/REC-SVG-20010904/DTD/svg10.dtd">
<svg version="1.0" xmlns="http://www.w3.org/2000/svg"
 width="499.000000pt" height="212.000000pt" viewBox="0 0 499.000000 212.000000"
 preserveAspectRatio="xMidYMid meet">

<g transform="translate(0.000000,212.000000) scale(0.100000,-0.100000)"
fill="#000000" stroke="none">
<path d="M3994 1786 c-4 -9 -3 -38 0 -64 22 -151 23 -145 -25 -183 l-43 -34
-226 -5 -225 -5 -5 -260 c-4 -166 -10 -273 -18 -295 -10 -29 -10 -37 3 -46 13
-10 15 -52 15 -283 l0 -271 160 0 c159 0 161 0 184 -25 26 -28 51 -25 61 6 6
18 21 19 381 19 l374 0 0 440 c0 382 2 441 15 446 8 4 15 13 15 20 0 8 -7 17
-15 20 -12 5 -15 28 -15 120 l0 114 -70 0 c-83 0 -82 -2 -45 113 32 100 32
130 0 151 -23 15 -25 15 -37 -7 -6 -12 -28 -74 -48 -137 l-37 -115 -146 -3
-146 -3 -11 41 c-5 22 -15 59 -21 83 -17 64 -50 161 -60 171 -5 6 -11 2 -15
-8z m26 -271 c0 -8 -7 -15 -16 -15 -14 0 -14 3 -4 15 7 8 14 15 16 15 2 0 4
-7 4 -15z m-353 -132 c12 -54 25 -107 28 -118 6 -20 -1 -29 -146 -197 -22 -27
-45 -48 -50 -48 -5 0 -9 97 -9 230 l0 230 78 0 77 0 22 -97z m212 74 c-13 -13
-44 -49 -69 -80 -25 -31 -48 -56 -51 -57 -4 0 -15 32 -24 70 -10 40 -24 74
-34 80 -11 6 19 9 93 10 l109 0 -24 -23z m155 6 c9 -30 38 -214 34 -217 -1 -2
-50 -8 -108 -15 -58 -7 -123 -15 -144 -18 -35 -5 -38 -3 -34 13 3 11 47 72 98
137 79 98 98 117 121 117 18 0 30 -6 33 -17z m322 -98 l-31 -115 -77 0 c-77 0
-78 0 -84 28 -10 46 -42 166 -49 185 -7 16 4 17 132 17 l140 0 -31 -115z m264
10 c0 -121 12 -110 -127 -120 -64 -4 -83 -2 -83 7 0 7 14 59 31 116 l32 102
74 0 73 0 0 -105z m0 -220 c0 -50 -3 -65 -14 -65 -8 0 -16 10 -18 22 -2 12 -8
23 -14 25 -17 6 -72 -50 -75 -77 -4 -24 -7 -25 -68 -22 -35 1 -66 4 -69 6 -2
3 4 40 14 83 22 90 21 90 162 92 l82 1 0 -65z m-311 28 c0 -10 -8 -45 -17 -78
-16 -58 -18 -60 -53 -63 -36 -3 -36 -3 -43 44 -3 26 -6 62 -6 80 l0 34 60 0
c51 0 60 -3 59 -17z m-224 -58 c5 -44 13 -68 24 -75 11 -7 -7 -9 -59 -10 -42
0 -81 5 -86 10 -34 34 -62 -44 -45 -122 18 -81 44 -298 57 -470 l7 -98 -51 0
-50 0 -6 63 c-4 34 -11 109 -17 167 -5 58 -17 160 -25 227 -9 67 -13 136 -9
153 4 20 2 35 -8 45 -16 15 -34 132 -22 143 7 7 179 28 247 31 l36 1 7 -65z
m-361 -7 c3 -13 7 -53 11 -90 6 -77 13 -64 -136 -249 -115 -142 -109 -142
-109 -7 l0 114 31 30 c17 16 56 63 86 104 66 89 94 120 105 120 4 0 10 -10 12
-22z m896 -428 l0 -330 -280 0 -280 0 0 55 0 55 65 0 c49 0 67 -4 71 -15 9
-23 61 -19 74 5 8 16 21 20 60 20 38 0 50 4 50 15 0 10 -10 15 -34 15 -65 0
-66 2 -66 115 l0 103 48 6 c126 18 138 34 30 38 l-73 3 -6 100 c-3 55 -4 102
-3 104 5 6 182 6 189 0 3 -4 -1 -44 -9 -90 -8 -46 -17 -111 -21 -144 -3 -33
-15 -96 -25 -140 -39 -172 -38 -225 5 -225 13 0 27 6 32 13 28 43 131 415 154
555 6 39 13 72 15 72 2 0 4 -148 4 -330z m-414 193 c-4 -59 -9 -110 -12 -112
-3 -3 -36 -7 -73 -9 l-68 -4 -6 84 c-4 47 -10 99 -13 116 l-6 32 92 0 93 0 -7
-107z m-436 -184 c6 -74 10 -159 8 -190 l-3 -56 -74 114 c-54 85 -72 119 -67
136 3 12 29 53 57 91 40 54 53 66 60 54 4 -8 13 -75 19 -149z m425 -81 c-4
-57 -8 -104 -9 -104 0 -1 -29 -5 -63 -9 l-63 -7 0 111 0 111 71 0 71 0 -7
-102z m-475 -167 c27 -43 50 -81 50 -84 0 -4 -63 -7 -140 -7 l-140 0 0 105 c0
100 1 106 23 116 12 5 35 28 51 50 l28 41 39 -71 c21 -39 61 -107 89 -150z"/>
<path d="M2387 1722 c-10 -10 -17 -26 -17 -35 0 -15 -25 -17 -247 -19 l-248
-3 -3 -577 -2 -578 95 0 95 0 0 -80 0 -80 29 0 c34 0 38 9 47 95 l7 65 277 0
276 0 57 -64 c32 -36 66 -68 78 -71 27 -9 52 13 45 41 -4 14 -1 24 9 28 9 3
15 18 15 36 l0 30 65 0 65 0 0 580 0 580 -288 0 -288 0 -17 35 c-19 40 -27 43
-50 17z m9 -172 c18 -55 28 -102 24 -105 -4 -2 -33 -7 -64 -11 -53 -6 -56 -5
-56 15 0 16 -6 21 -24 21 -37 0 -56 -10 -56 -30 0 -20 -19 -30 -56 -30 -24 0
-24 0 -24 110 0 67 -4 110 -10 110 -5 0 -10 -6 -10 -14 0 -8 -6 -21 -14 -28
-8 -8 -16 -50 -21 -102 -7 -87 -7 -88 -38 -99 l-32 -11 30 -6 30 -5 -2 -90
c-2 -50 -6 -237 -9 -417 l-7 -328 -83 0 -84 0 0 560 0 560 238 0 237 0 31
-100z m346 78 c2 -15 11 -24 26 -26 18 -3 22 1 22 22 l0 26 115 0 115 0 0
-560 0 -560 -73 0 -72 0 -129 129 -128 129 77 95 c48 60 88 99 106 106 30 10
36 25 20 50 -7 11 -15 11 -39 3 -37 -13 -289 -38 -298 -30 -3 4 2 29 11 57
l17 51 51 0 c63 0 203 16 275 31 41 8 52 14 52 30 0 14 -7 19 -29 19 -27 0
-33 8 -86 113 l-57 112 63 9 c106 14 141 25 137 44 -5 24 -36 26 -176 12 -115
-12 -124 -12 -136 5 -12 17 -14 17 -36 -8 -13 -15 -29 -27 -36 -27 -6 0 -19
30 -28 68 -10 37 -24 77 -32 89 -8 12 -14 25 -14 28 0 3 63 5 139 5 137 0 140
0 143 -22z m-81 -263 c9 -27 32 -76 49 -108 18 -33 29 -62 24 -67 -12 -11
-203 -44 -211 -36 -3 3 8 50 25 103 17 54 34 113 38 131 6 28 10 33 32 30 20
-2 29 -13 43 -53z m-237 18 c-4 -10 -26 -72 -49 -138 -34 -98 -45 -120 -61
-120 -17 0 -19 8 -22 90 -1 50 1 108 6 130 9 43 25 52 96 54 33 1 37 -1 30
-16z m-218 -29 c-3 -9 -6 -67 -6 -130 l0 -114 -30 0 -30 0 0 130 0 130 36 0
c29 0 35 -3 30 -16z m119 -301 c-9 -59 -19 -80 -45 -88 -24 -8 -27 -35 -4 -35
23 0 12 -76 -32 -238 -19 -68 -34 -133 -34 -143 0 -15 -7 -19 -35 -19 l-35 0
0 275 0 275 30 0 c26 0 30 -3 30 -29 0 -16 9 -39 19 -52 27 -33 51 -17 70 49
20 69 46 72 36 5z m345 -100 c-5 -10 -30 -40 -54 -67 l-44 -49 -52 52 c-29 29
-50 54 -48 57 5 4 131 20 181 23 24 1 26 -1 17 -16z m-201 -135 c17 -23 31
-48 31 -55 0 -7 -32 -47 -71 -89 -55 -60 -69 -82 -67 -103 7 -57 46 -31 161
104 14 17 27 28 29 25 2 -3 33 -41 68 -85 l63 -80 -198 -3 c-109 -1 -200 0
-202 2 -3 3 2 30 11 60 15 52 19 56 46 56 33 0 42 12 59 85 21 88 32 125 36
125 2 0 17 -19 34 -42z"/>
<path d="M1957 1504 c-4 -4 -7 -18 -7 -31 0 -20 5 -24 23 -21 16 2 22 10 22
28 0 24 -23 39 -38 24z"/>
<path d="M2866 734 c-4 -10 -2 -22 3 -27 15 -15 46 -3 46 18 0 26 -40 33 -49
9z"/>
<path d="M250 1576 l0 -85 -37 -3 c-28 -2 -39 -8 -41 -22 -4 -17 0 -18 32 -13
l37 6 -3 -82 -3 -81 -43 -11 c-51 -12 -46 -25 10 -25 l38 0 0 -94 c0 -61 -5
-103 -14 -121 -16 -30 -11 -55 10 -55 12 0 14 -42 14 -240 l0 -240 504 0 c480
0 505 -1 510 -18 4 -10 19 -31 35 -46 22 -21 35 -26 51 -21 19 6 22 12 17 46
-4 34 -2 39 14 39 18 0 19 15 19 515 0 451 2 515 15 515 8 0 15 5 15 10 0 6
-7 10 -15 10 -11 0 -15 12 -15 50 l0 50 -575 0 -575 0 0 -84z m1140 35 c0 -45
-9 -51 -79 -51 -55 0 -509 -55 -588 -71 -64 -13 -73 -35 -10 -25 23 4 89 11
147 16 58 5 127 12 153 16 l48 7 -7 -29 c-4 -16 -15 -53 -26 -83 -10 -30 -18
-67 -18 -83 0 -21 -6 -31 -26 -38 -44 -17 -64 -13 -64 15 0 18 5 25 20 25 14
0 20 7 20 22 0 21 0 21 -179 14 l-178 -7 -7 62 c-12 123 -19 114 86 128 109
14 131 23 99 40 -12 7 -30 10 -39 7 -28 -9 -432 -76 -458 -76 -23 0 -24 3 -24
75 l0 75 565 0 565 0 0 -39z m0 -577 l0 -505 -22 3 c-31 4 -117 146 -164 271
-33 85 -40 97 -61 97 -13 0 -26 -7 -30 -16 -7 -20 17 -92 64 -193 20 -41 39
-86 43 -100 4 -14 11 -34 15 -43 7 -17 -4 -18 -136 -18 l-142 0 20 23 c27 29
112 294 152 475 39 175 38 216 -3 117 -16 -38 -35 -77 -42 -85 -12 -15 -68
-173 -100 -285 l-17 -60 -18 170 c-10 94 -18 211 -18 262 l-1 92 33 5 c17 3
50 6 72 6 22 0 87 3 144 6 l104 5 -7 -73 c-4 -40 -11 -116 -16 -168 -5 -52
-10 -130 -10 -173 0 -65 3 -79 18 -84 9 -4 21 -12 25 -20 4 -7 18 -13 31 -13
23 0 23 1 29 167 4 91 7 242 7 335 0 143 -2 168 -15 168 -8 0 -15 5 -15 10 0
16 -27 11 -34 -6 -3 -9 -6 -30 -6 -47 0 -18 -4 -37 -8 -43 -6 -10 -182 -29
-182 -20 0 12 41 210 44 214 3 2 165 24 234 31 9 1 12 -106 12 -505z m-876
384 c-3 -46 -7 -84 -8 -85 0 -1 -39 -6 -86 -12 -47 -6 -102 -14 -122 -17 l-38
-6 0 81 0 80 38 7 c20 3 64 12 97 19 33 7 75 13 93 14 l33 1 -7 -82z m356
-303 l0 -185 -42 -38 c-23 -20 -58 -63 -78 -94 l-37 -57 -7 104 c-4 57 -4 115
0 129 3 13 1 27 -5 30 -6 4 -11 25 -11 46 0 51 -8 70 -31 70 -16 0 -19 -8 -19
-42 0 -50 -13 -80 -24 -53 -6 17 -9 195 -2 195 2 0 47 -22 101 -50 106 -54
145 -62 145 -31 0 25 -2 26 -139 81 -62 25 -113 50 -112 55 1 11 79 21 189 23
l72 2 0 -185z m-410 159 c0 -12 -83 -98 -142 -147 l-58 -49 0 96 0 95 73 4
c39 1 84 4 100 5 15 1 27 -1 27 -4z m58 -229 c24 -10 32 -55 10 -55 -7 0 -30
-3 -50 -6 -36 -6 -37 -6 -44 30 -5 27 -11 36 -23 34 -22 -4 -28 -69 -27 -315
l1 -203 -62 0 -63 0 0 233 0 232 66 55 c36 30 87 72 112 94 l47 38 5 -63 c4
-54 8 -66 28 -74z m113 -92 c1 -5 4 -80 8 -168 l6 -160 30 0 c26 0 30 4 36 37
7 44 26 74 98 156 l56 62 7 -37 c4 -21 7 -65 8 -98 1 -79 8 -105 31 -105 16 0
17 -4 9 -26 -6 -14 -10 -39 -10 -55 l0 -29 -237 1 c-131 0 -232 3 -225 6 9 3
12 54 12 203 l0 199 33 5 c17 3 50 7 72 9 22 2 46 4 53 5 6 1 13 -1 13 -5z"/>
<path d="M1535 590 c3 -5 8 -10 11 -10 2 0 4 5 4 10 0 6 -5 10 -11 10 -5 0 -7
-4 -4 -10z"/>
</g>
</svg>
